<svg xmlns="http://www.w3.org/2000/svg" viewBox="0 0 128 128"><g data-name="love song"><path d="M116.967 44.174c-2.02-.648-3.722.8-6.09 3.071-.464.445-.916.879-1.357 1.269a3.218 3.218 0 0 1-4.246 0 41.09 41.09 0 0 1-1.428-1.349c-1.949-1.9-3.367-3.149-5-3.149a3.5 3.5 0 0 0-1.043.165 4.067 4.067 0 0 0-2.761 2.353 6.069 6.069 0 0 0 .671 5.1c1.324 2.392 6.729 5.785 11.5 8.085a.415.415 0 0 0 .364 0c4.506-2.172 10.036-5.648 11.532-8.145a5.714 5.714 0 0 0 .6-4.871 4.163 4.163 0 0 0-2.742-2.529zM78.062 47.157H28.038A3.237 3.237 0 0 0 24.8 50.51l1.236 34.882a4.219 4.219 0 0 1-1.206 3.119 4.351 4.351 0 0 1-3.1 1.3h-.188a14.3 14.3 0 0 0-14.275 15.027A14.383 14.383 0 0 0 20.9 118.4a14.3 14.3 0 0 0 14.942-14.289c0-.639-1.885-40.3-1.885-40.3a7.238 7.238 0 0 1 7.231-7.57h23.83a7.227 7.227 0 0 1 7.23 6.908l1.017 22.193a4.218 4.218 0 0 1-1.175 3.131 4.379 4.379 0 0 1-3.148 1.337h-.006a14.3 14.3 0 0 0-14.312 14.982A14.391 14.391 0 0 0 68.231 118.4a14.308 14.308 0 0 0 14.983-14.249L81.3 50.281a3.227 3.227 0 0 0-3.238-3.124zM83.208 30.009a.871.871 0 0 0 .762 0c5.4-2.606 12.045-6.791 13.862-9.823a7.164 7.164 0 0 0 .745-6.115 5.314 5.314 0 0 0-3.5-3.23c-2.6-.832-4.7.935-7.614 3.735a56.786 56.786 0 0 1-1.6 1.5 3.441 3.441 0 0 1-4.545 0 46.283 46.283 0 0 1-1.684-1.59c-2.327-2.268-4.129-3.846-6.213-3.846a4.49 4.49 0 0 0-1.34.211 5.258 5.258 0 0 0-3.517 3.013 7.578 7.578 0 0 0 .817 6.384c1.611 2.913 8.105 7.002 13.827 9.761z"/></g></svg>